<?xml version="1.0" encoding="UTF-8"?>
<svg id="flag-icons-us" xmlns="http://www.w3.org/2000/svg" viewBox="0 0 640 480">
  <defs>
    <style>
      .cls-1 {
        stroke: #fff;
        stroke-width: 37px;
      }

      .cls-2 {
        fill: #fff;
      }

      .cls-3 {
        fill: #192f5d;
      }

      .cls-4 {
        fill: #bd3d44;
      }
    </style>
  </defs>
  <path class="cls-4" d="M0,0h640v480H0"/>
  <path class="cls-1" d="M0,55.3h640M0,129h640M0,203h640M0,277h640M0,351h640M0,425h640"/>
  <path class="cls-3" d="M0,0h364.8v258.5H0"/>
  <path class="cls-2" d="M30,11l9,27-23-17h28l-23,17,9-27Z"/>
  <path class="cls-2" d="M91,11l9,27-23-17h28l-23,17,9-27Z"/>
  <path class="cls-2" d="M152,11l9,27-23-17h28l-23,17,9-27Z"/>
  <path class="cls-2" d="M213,11l9,27-23-17h28l-23,17,9-27Z"/>
  <path class="cls-2" d="M274,11l9,27-23-17h28l-23,17,9-27Z"/>
  <path class="cls-2" d="M334,11l9,27-23-17h28l-23,17,9-27Z"/>
  <path class="cls-2" d="M61,37l9,27-23-17h28l-23,17,9-27Z"/>
  <path class="cls-2" d="M122,37l9,27-23-17h28l-23,17,9-27Z"/>
  <path class="cls-2" d="M183,37l9,27-23-17h28l-23,17,9-27Z"/>
  <path class="cls-2" d="M243,37l9,27-23-17h28l-23,17,9-27Z"/>
  <path class="cls-2" d="M304,37l9,27-23-17h28l-23,17,9-27Z"/>
  <path class="cls-2" d="M30,63l9,27-23-17h28l-23,17,9-27Z"/>
  <path class="cls-2" d="M91,63l9,27-23-17h28l-23,17,9-27Z"/>
  <path class="cls-2" d="M152,63l9,27-23-17h28l-23,17,9-27Z"/>
  <path class="cls-2" d="M213,63l9,27-23-17h28l-23,17,9-27Z"/>
  <path class="cls-2" d="M274,63l9,27-23-17h28l-23,17,9-27Z"/>
  <path class="cls-2" d="M334,63l9,27-23-17h28l-23,17,9-27Z"/>
  <path class="cls-2" d="M61,89l9,27-23-17h28l-23,17,9-27Z"/>
  <path class="cls-2" d="M122,89l9,27-23-17h28l-23,17,9-27Z"/>
  <path class="cls-2" d="M183,89l9,27-23-17h28l-23,17,9-27Z"/>
  <path class="cls-2" d="M243,89l9,27-23-17h28l-23,17,9-27Z"/>
  <path class="cls-2" d="M304,89l9,27-23-17h28l-23,17,9-27Z"/>
  <path class="cls-2" d="M30,115l9,27-23-17h28l-23,17,9-27Z"/>
  <path class="cls-2" d="M91,115l9,27-23-17h28l-23,17,9-27Z"/>
  <path class="cls-2" d="M152,115l9,27-23-17h28l-23,17,9-27Z"/>
  <path class="cls-2" d="M213,115l9,27-23-17h28l-23,17,9-27Z"/>
  <path class="cls-2" d="M274,115l9,27-23-17h28l-23,17,9-27Z"/>
  <path class="cls-2" d="M334,115l9,27-23-17h28l-23,17,9-27Z"/>
  <path class="cls-2" d="M61,141l9,27-23-17h28l-23,17,9-27Z"/>
  <path class="cls-2" d="M122,141l9,27-23-17h28l-23,17,9-27Z"/>
  <path class="cls-2" d="M183,141l9,27-23-17h28l-23,17,9-27Z"/>
  <path class="cls-2" d="M243,141l9,27-23-17h28l-23,17,9-27Z"/>
  <path class="cls-2" d="M304,141l9,27-23-17h28l-23,17,9-27Z"/>
  <path class="cls-2" d="M30,166l9,27-23-17h28l-23,17,9-27Z"/>
  <path class="cls-2" d="M91,166l9,27-23-17h28l-23,17,9-27Z"/>
  <path class="cls-2" d="M152,166l9,27-23-17h28l-23,17,9-27Z"/>
  <path class="cls-2" d="M213,166l9,27-23-17h28l-23,17,9-27Z"/>
  <path class="cls-2" d="M274,166l9,27-23-17h28l-23,17,9-27Z"/>
  <path class="cls-2" d="M334,166l9,27-23-17h28l-23,17,9-27Z"/>
  <path class="cls-2" d="M61,192l9,27-23-17h28l-23,17,9-27Z"/>
  <path class="cls-2" d="M122,192l9,27-23-17h28l-23,17,9-27Z"/>
  <path class="cls-2" d="M183,192l9,27-23-17h28l-23,17,9-27Z"/>
  <path class="cls-2" d="M243,192l9,27-23-17h28l-23,17,9-27Z"/>
  <path class="cls-2" d="M304,192l9,27-23-17h28l-23,17,9-27Z"/>
  <path class="cls-2" d="M30,218l9,27-23-17h28l-23,17,9-27Z"/>
  <path class="cls-2" d="M91,218l9,27-23-17h28l-23,17,9-27Z"/>
  <path class="cls-2" d="M152,218l9,27-23-17h28l-23,17,9-27Z"/>
  <path class="cls-2" d="M213,218l9,27-23-17h28l-23,17,9-27Z"/>
  <path class="cls-2" d="M274,218l9,27-23-17h28l-23,17,9-27Z"/>
  <path class="cls-2" d="M334,218l9,27-23-17h28l-23,17,9-27Z"/>
</svg>